HIERARCHY
ROOT Hips
{
	OFFSET 0.000000 0.000000 0.000000 
	CHANNELS 6 Xposition Yposition Zposition Zrotation Yrotation Xrotation
	JOINT LeftUpLeg
	{
		OFFSET 1.363060 -1.794630 0.839290 
		CHANNELS 3 Zrotation Yrotation Xrotation
		JOINT LeftLeg
		{
			OFFSET 2.448110 -6.726130 0.000000 
			CHANNELS 3 Zrotation Yrotation Xrotation
			JOINT LeftFoot
			{
				OFFSET 2.562200 -7.039590 0.000000 
				CHANNELS 3 Zrotation Yrotation Xrotation
				JOINT LeftToeBase
				{
					OFFSET 0.157640 -0.433110 2.322550 
					CHANNELS 3 Zrotation Yrotation Xrotation
					End Site
					{
						OFFSET 0.000000 0.000000 0.000000 
					}
				}
			}
		}
	}
	JOINT RightUpLeg
	{
		OFFSET -1.305520 -1.794630 0.839290 
		CHANNELS 3 Zrotation Yrotation Xrotation
		JOINT RightLeg
		{
			OFFSET -2.542530 -6.985550 0.000000 
			CHANNELS 3 Zrotation Yrotation Xrotation
			JOINT RightFoot
			{
				OFFSET -2.568260 -7.056230 0.000000 
				CHANNELS 3 Zrotation Yrotation Xrotation
				JOINT RightToeBase
				{
					OFFSET -0.164730 -0.452590 2.363150 
					CHANNELS 3 Zrotation Yrotation Xrotation
					End Site
					{
						OFFSET 0.000000 0.000000 0.000000 
					}
				}
			}
		}
	}
	JOINT Spine
	{
		OFFSET 0.028270 2.035590 -0.193380 
		CHANNELS 3 Zrotation Yrotation Xrotation
		JOINT Spine1
		{
			OFFSET 0.056720 2.048850 -0.042750 
			CHANNELS 3 Zrotation Yrotation Xrotation
			JOINT Neck1
			{
				OFFSET -0.054170 1.746240 0.172020 
				CHANNELS 3 Zrotation Yrotation Xrotation
				JOINT Head
				{
					OFFSET 0.104070 1.761360 -0.123970 
					CHANNELS 3 Zrotation Yrotation Xrotation
					End Site
					{
						OFFSET 0.000000 0.000000 0.000000 
					}
				}
			}
			JOINT LeftArm
			{
				OFFSET 3.362410 1.200890 -0.311210 
				CHANNELS 3 Zrotation Yrotation Xrotation
				JOINT LeftForeArm
				{
					OFFSET 4.983000 -0.000000 -0.000000 
					CHANNELS 3 Zrotation Yrotation Xrotation
					JOINT LeftHand
					{
						OFFSET 3.483560 -0.000000 -0.000000 
						CHANNELS 3 Zrotation Yrotation Xrotation
						JOINT LeftHandIndex1
						{
							OFFSET 0.715260 -0.000000 -0.000000 
							CHANNELS 3 Zrotation Yrotation Xrotation
							End Site
							{
								OFFSET 0.000000 0.000000 0.000000 
							}
						}
					}
				}
			}
			JOINT RightArm
			{
				OFFSET -3.136600 1.374050 -0.404650 
				CHANNELS 3 Zrotation Yrotation Xrotation
				JOINT RightForeArm
				{
					OFFSET -5.241900 -0.000000 -0.000000 
					CHANNELS 3 Zrotation Yrotation Xrotation
					JOINT RightHand
					{
						OFFSET -3.444170 -0.000000 -0.000000 
						CHANNELS 3 Zrotation Yrotation Xrotation
						JOINT RightHandIndex1
						{
							OFFSET -0.622530 -0.000000 -0.000000 
							CHANNELS 3 Zrotation Yrotation Xrotation
							End Site
							{
								OFFSET 0.000000 0.000000 0.000000 
							}
						}
					}
				}
			}
		}
	}
}
MOTION
Frames: 18
Frame Time: 0.041667
0.683009 17.987407 -22.064022 1.597572 1.282265 1.826754 -20.818701 -8.627919 -1.428403 -0.306173 4.880085 21.153382 0.335863 0.220922 -5.323188 0.037100 -1.243600 -3.419200 10.382982 12.878311 -26.499043 1.754157 -1.111612 5.053381 3.800025 -14.513302 10.173999 -0.192500 2.825600 -7.793500 4.593488 -2.600646 5.439871 4.420758 -1.318611 -7.692145 0.514710 -2.883820 18.781372 -0.748200 -1.376600 8.752300 -73.009286 -3.965475 28.269910 16.955387 -27.532131 -4.322810 -0.255608 -0.745998 0.884432 -7.125000 0.000000 0.000000 74.069822 -7.268626 12.959301 -10.492439 22.570240 -2.508464 0.937679 -0.441932 6.252827 7.125000 0.000000 0.000000 
0.674433 17.968360 -21.903965 1.854792 1.416501 2.061704 -21.037702 -8.656792 -1.239949 -0.245316 4.998285 21.478999 0.415944 0.015860 -5.650384 0.036700 -1.237200 -3.401700 9.933623 12.161106 -24.769152 2.069010 0.696506 0.210994 3.719694 -14.935407 12.200929 -0.164700 2.614300 -7.206600 4.357836 -2.655540 5.663655 4.335894 -1.341475 -7.370929 0.162539 -2.272306 18.786122 -0.887000 -1.083500 8.813500 -72.707744 -4.616188 28.443256 17.016538 -27.613907 -4.355026 -0.264221 -0.738386 0.722016 -7.125000 0.000000 0.000000 74.343624 -6.954541 12.601054 -10.315481 22.262333 -2.421695 0.945263 -0.459949 6.467408 7.125000 0.000000 0.000000 
0.657979 17.932858 -21.750091 1.694443 1.479791 2.147768 -20.869009 -8.682424 -1.013034 -0.167943 5.128582 21.873058 0.414063 0.090527 -5.900314 0.066100 -1.659200 -4.564700 10.123052 12.192144 -24.718222 2.099878 1.003830 -0.433817 3.749903 -14.458041 10.065694 -0.094500 1.982700 -5.457900 4.630773 -2.813362 5.726725 4.491798 -1.416929 -7.214232 0.492792 -2.620542 18.216611 -0.747300 -1.257900 8.603600 -72.870887 -4.841805 28.054776 16.939898 -27.469887 -4.379829 -0.368158 -0.517706 0.735879 -7.125000 0.000000 0.000000 74.150615 -7.009726 12.973341 -10.318559 22.280218 -2.433404 0.942505 -0.428837 6.396226 7.125000 0.000000 0.000000 
0.632948 17.913711 -21.599109 1.554843 1.629836 2.161599 -20.657166 -8.886421 -0.585001 -0.122252 5.203193 22.102434 0.420774 0.085809 -5.977111 0.095200 -1.989900 -5.477700 10.376621 12.120545 -24.730737 2.105113 0.998571 -0.435497 3.756901 -14.568996 10.376617 -0.091300 1.948700 -5.363900 5.039007 -3.044517 5.470976 4.845447 -1.511385 -7.477215 0.641346 -2.612764 17.911578 -0.607500 -1.283000 8.393000 -73.077523 -4.565851 27.678730 17.178171 -27.815660 -4.402921 -0.231840 -0.830047 0.753466 -7.125000 0.000000 0.000000 73.731272 -7.496174 13.366005 -10.252615 22.223820 -2.414378 0.946297 -0.420832 6.322964 7.125000 0.000000 0.000000 
0.615995 17.917401 -21.439052 1.490537 1.665666 2.106953 -20.616563 -9.062283 -0.074390 -0.063931 5.264064 22.361269 0.363071 0.266635 -5.970532 0.130400 -2.327800 -6.412400 10.639016 12.470560 -25.732958 1.963035 -0.070851 2.405187 3.665444 -14.047102 9.674675 -0.059500 1.574100 -4.329900 5.180195 -3.144055 5.513103 4.959961 -1.567109 -7.455374 0.720537 -2.479571 17.881768 -0.540200 -1.226200 8.381500 -73.111737 -4.638129 27.429209 17.208848 -27.852096 -4.468269 -0.314088 -0.663685 0.660001 -7.125000 0.000000 0.000000 73.680360 -7.520401 13.067737 -10.073343 21.945704 -2.339080 0.952476 -0.428052 6.624684 7.125000 0.000000 0.000000 
0.596748 17.908824 -21.271715 1.473012 1.561969 2.096315 -20.623804 -9.064252 0.369182 -0.007672 5.310540 22.591634 0.336853 0.324652 -5.920556 0.177800 -2.716100 -7.489300 10.844695 12.995762 -26.935456 1.721414 -1.314056 5.692949 3.562083 -13.644604 9.430151 -0.003300 0.369800 -1.016000 5.133053 -3.094788 5.641575 4.920888 -1.558589 -7.374947 0.736724 -2.508549 17.939369 -0.559200 -1.230200 8.468400 -73.022855 -4.814413 27.261670 17.303478 -27.961605 -4.527719 -0.315391 -0.613996 0.701963 -7.125000 0.000000 0.000000 73.833052 -7.375312 12.656632 -9.902769 21.664278 -2.265727 0.953313 -0.442080 6.896740 7.125000 0.000000 0.000000 
0.576404 17.899051 -21.104378 1.420251 1.689275 1.993043 -20.516877 -9.143295 0.858237 0.054754 5.383364 22.867363 0.401413 0.053650 -5.807490 0.212700 -2.969200 -8.192900 11.120552 13.231395 -27.805308 1.465678 -2.342544 8.491847 3.508312 -13.267341 8.481363 -0.005200 0.466800 -1.282700 4.588089 -2.750590 6.299555 4.345624 -1.433833 -6.981749 0.648911 -3.102799 18.241203 -0.810700 -1.447500 8.807300 -72.337926 -6.189062 28.034010 17.105539 -27.713366 -4.443952 -0.323019 -0.584205 0.719527 -7.125000 0.000000 0.000000 74.868575 -6.554434 11.190796 -9.823247 21.444606 -2.212711 0.947723 -0.485700 7.266140 7.125000 0.000000 0.000000 
0.552570 17.884392 -20.933352 1.315565 1.680128 1.959841 -20.418822 -9.113512 1.194118 0.164143 5.529773 23.372342 0.418584 -0.048256 -5.706471 0.303400 -3.541200 -9.789500 11.709509 13.048383 -28.515876 1.230758 -3.179028 10.764244 3.326102 -12.772705 8.560569 -0.001900 0.281200 -0.772500 5.080286 -3.075763 5.991360 4.827207 -1.571906 -7.145638 0.665755 -2.635211 17.604822 -0.653800 -1.278400 8.419500 -72.825168 -5.529285 27.149837 17.108693 -27.739137 -4.398413 -0.295313 -0.740497 0.821118 -7.125000 0.000000 0.000000 74.227183 -7.171493 11.745235 -9.684948 21.285640 -2.160927 0.952776 -0.502396 7.258201 7.125000 0.000000 0.000000 
0.530132 17.859760 -20.757638 1.397281 1.553610 1.948828 -20.590019 -9.202592 1.566735 0.300552 5.711950 24.005460 0.437791 -0.142314 -5.718936 0.328100 -3.681700 -10.182900 12.092579 12.932902 -29.028705 1.007818 -3.865862 12.652098 3.155076 -12.344743 8.843130 -0.010400 0.658700 -1.810200 5.166345 -3.125961 5.951523 5.017465 -1.589147 -7.225021 0.558467 -2.524401 17.626479 -0.676900 -1.236500 8.446500 -72.859682 -5.425664 27.034981 17.259291 -27.943864 -4.417084 -0.228651 -0.952307 0.498613 -7.125000 0.000000 0.000000 74.069226 -7.265695 11.683232 -9.503655 21.011886 -2.080519 0.959404 -0.536681 7.461192 7.125000 0.000000 0.000000 
0.504902 17.839416 -20.583819 1.401692 1.445597 1.981876 -20.640240 -9.284280 1.868561 0.430114 5.891369 24.607847 0.449717 -0.249965 -5.554373 0.368500 -3.899500 -10.794100 12.499319 12.922310 -29.376115 0.804079 -4.436672 14.310572 2.942787 -11.680928 8.643437 -0.024900 1.018100 -2.798500 5.133747 -3.082600 5.894999 5.028916 -1.569140 -7.244127 0.653582 -2.617482 17.647335 -0.658300 -1.268400 8.431900 -72.821287 -5.273745 27.032754 17.209410 -27.849071 -4.497596 -0.375960 -0.563953 0.599810 -7.125000 0.000000 0.000000 74.207835 -7.408006 11.204383 -9.358383 20.773125 -2.013873 0.966012 -0.564507 7.864852 7.125000 0.000000 0.000000 
0.480370 17.833732 -20.400726 1.261646 1.393658 2.129977 -20.507528 -9.369400 2.065684 0.543260 6.057770 25.139747 0.425100 -0.275559 -5.162738 0.467600 -4.386100 -12.165400 13.034932 12.871940 -29.595344 0.630950 -4.894279 15.707610 2.660601 -10.803679 8.465643 -0.019500 0.900500 -2.475000 5.429780 -3.203956 5.704143 5.205112 -1.627411 -7.144244 0.840338 -2.468688 17.394924 -0.506100 -1.216000 8.234200 -73.117005 -4.697429 26.596958 17.526819 -28.270561 -4.606290 -0.299671 -0.718729 0.725558 -7.125000 0.000000 0.000000 73.855251 -7.875717 11.360113 -9.336506 20.772180 -2.015171 0.964484 -0.555606 7.805064 7.125000 0.000000 0.000000 
0.454243 17.839815 -20.206265 1.267173 1.530439 2.138105 -20.419348 -9.352183 2.366368 0.646244 6.197377 25.604890 0.477706 -0.666155 -4.461279 0.581900 -4.884600 -13.579700 13.370395 12.760323 -29.478003 0.478396 -5.257306 16.825366 2.500089 -10.298504 8.407766 -0.004700 0.444500 -1.221400 5.343521 -3.221197 5.824868 5.108914 -1.648151 -6.957966 0.964877 -2.556983 17.532065 -0.476100 -1.244900 8.323000 -73.121058 -4.680670 26.469165 17.611877 -28.373488 -4.636449 -0.269214 -0.749159 0.945981 -7.125000 0.000000 0.000000 74.090291 -7.768060 10.671177 -9.237963 20.591716 -1.978738 0.956620 -0.561206 8.231307 7.125000 0.000000 0.000000 
0.427217 17.858364 -20.016590 1.197921 1.793478 2.048291 -20.216552 -9.443557 2.746147 0.737266 6.328846 26.027414 0.573028 -1.252080 -3.593097 0.627100 -5.067400 -14.100900 13.648963 12.765090 -29.177369 0.342061 -5.530013 17.653858 2.505617 -10.366762 8.802578 -0.001400 0.241700 -0.664100 5.269892 -3.340696 5.832419 5.045097 -1.709466 -7.039724 0.761760 -2.542294 17.882191 -0.587500 -1.230800 8.496600 -73.090634 -4.511237 26.334691 17.633864 -28.408909 -4.649695 -0.272834 -0.744654 1.158742 -7.125000 0.000000 0.000000 74.340439 -7.704247 10.059795 -9.077720 20.318260 -1.910767 0.951672 -0.590946 8.481467 7.125000 0.000000 0.000000 
0.398796 17.879206 -19.825219 1.117276 1.963648 2.068803 -20.064460 -9.641636 3.039089 0.835302 6.474301 26.491772 0.570575 -1.479034 -2.693521 0.745000 -5.513600 -15.379400 13.798306 12.910086 -28.982629 0.228909 -5.732997 18.230039 2.523528 -10.611818 9.835135 -0.000700 0.171800 -0.472000 5.523749 -3.578341 5.494489 5.298180 -1.809696 -7.304163 0.507347 -2.296242 18.130881 -0.622600 -1.142900 8.533500 -73.429337 -3.838116 25.875173 17.656973 -28.422104 -4.665658 -0.269665 -0.715648 1.228796 -7.125000 0.000000 0.000000 74.037923 -8.265526 9.884859 -8.932271 20.119571 -1.830310 0.962594 -0.677856 8.738405 7.125000 0.000000 0.000000 
0.374763 17.900647 -19.631057 0.952670 1.973147 2.051478 -19.874957 -9.823444 3.201516 0.980660 6.693893 27.181920 0.586876 -1.781171 -1.722885 0.822400 -5.786100 -16.165000 13.988136 13.131453 -28.684951 0.152136 -5.836433 18.576010 2.448451 -10.634766 11.149244 -0.006800 0.532200 -1.462400 5.390365 -3.396052 5.613089 4.963124 -1.739229 -7.210045 0.429368 -2.480545 18.337721 -0.704600 -1.219300 8.669900 -73.322469 -4.096099 26.236075 17.523532 -28.255161 -4.594985 -0.259742 -0.735828 0.885359 -7.125000 0.000000 0.000000 74.400308 -8.170347 8.573530 -8.749098 19.776746 -1.724472 0.963415 -0.776798 9.448875 7.125000 0.000000 0.000000 
0.355017 17.921689 -19.442878 0.738913 1.922510 1.920294 -19.646144 -9.803668 3.276407 1.183719 6.982533 28.117580 0.635976 -2.225315 -0.661554 0.971500 -6.275100 -17.584700 14.233359 13.304568 -28.273556 0.107881 -5.890683 18.860267 2.190503 -10.056834 12.309605 -0.083500 1.863700 -5.129200 5.310574 -3.196176 5.781765 4.668164 -1.654887 -7.181653 0.391067 -2.745961 18.619531 -0.783300 -1.328600 8.843500 -73.361053 -4.416950 26.379774 17.306381 -27.994957 -4.473919 -0.263733 -0.804605 0.892195 -7.125000 0.000000 0.000000 74.742034 -7.848585 7.182380 -8.470252 19.270653 -1.603380 0.961283 -0.827020 10.220929 7.125000 0.000000 0.000000 
0.337366 17.940437 -19.249712 0.175812 1.902205 1.881600 -19.036350 -9.775139 3.068629 1.446056 7.371598 29.329355 0.688357 -2.644197 0.409956 1.163200 -6.846800 -19.262200 14.901085 13.382263 -27.954610 0.068079 -5.938231 19.192847 1.928465 -9.316230 12.901864 -0.141400 2.423600 -6.677800 5.577947 -3.227497 5.541543 4.501713 -1.675908 -7.416141 0.165282 -2.658809 18.893482 -0.853800 -1.301900 8.912000 -73.675320 -3.774589 26.016980 17.323617 -28.022369 -4.479143 -0.266503 -0.820099 1.166172 -7.125000 0.000000 0.000000 74.600376 -8.155944 6.512148 -8.193663 18.820980 -1.482291 0.961103 -0.894262 10.910969 7.125000 0.000000 0.000000 
0.316324 17.952503 -19.051461 -0.128790 1.704135 1.871879 -18.716325 -9.584241 2.662945 1.779698 7.819363 30.824192 0.793396 -3.363711 1.743677 1.141100 -6.783500 -19.075500 15.298787 13.693067 -27.643074 -0.009512 -6.042207 19.660204 1.708182 -8.762322 13.738751 -0.056900 1.539300 -4.234200 5.740425 -3.191723 5.409685 4.404493 -1.660694 -7.449469 0.170521 -2.519979 18.936246 -0.827000 -1.239500 8.900000 -73.995842 -3.176794 25.614005 17.330614 -28.023605 -4.499842 -0.291316 -0.754314 1.393416 -7.125000 0.000000 0.000000 74.504858 -8.449055 6.145021 -8.089114 18.658866 -1.446135 0.959119 -0.904490 11.384547 7.125000 0.000000 0.000000 
